<?xml version="1.0" encoding="utf-8"?>
<svg version="1.1" id="Layer_1" xmlns="http://www.w3.org/2000/svg" xmlns:xlink="http://www.w3.org/1999/xlink" x="0px" y="0px"
	 viewBox="0 0 686 277" style="enable-background:new 0 0 686 277;"  width="auto" height="80px" xml:space="preserve">

	 
<style type="text/css">
	.st0{fill:#89191f;}
</style>
<path class="st0" d="M40.8,37.2H167c34.8,0,69,11.2,69,49.4c0,27.6-14.7,42.3-41.4,49.2v0.6c27.9,3.7,45.1,25.6,45.1,45.7
	c0,50.6-40.8,55.8-82.5,55.8H40.8V37.2z M113.2,113.9h19.2c13.5,0,28.2-4,28.2-19.2c0-14.9-12.6-19.5-26.4-19.5h-21V113.9z
	 M113.2,196.4h20.1c14.1,0,29.3-5.2,29.3-20.7c0-17.2-14.4-20.4-28.7-20.4h-20.7L113.2,196.4L113.2,196.4z"/>
<path class="st0" d="M417,92.1c-19.1-6.6-39.2-10-59.5-10c-12.1,0-33,0.3-33,13.2c0,26.1,105.5,1.4,105.5,78.7
	c0,53.7-53.2,67.2-97.7,67.2c-27.9,0.2-55.7-3-82.8-9.5v-52c20.7,8.6,46,13.2,69,13.2c18.1,0,34.5-3.7,34.5-13.8
	c0-27-105.5-2.6-105.5-80.5c0-55.2,57.5-64.9,103.2-64.9c22.3,0.1,44.5,2.4,66.3,6.8V92.1z"/>
<path class="st0" d="M517.6,156.1c0,19,5.5,33.3,23.9,33.3c20.1,0,24.4-13.5,24.4-33.1V37.2h75.3V155c0,64.9-39.9,86.2-100.6,86.2
	c-56,0-100-23-100-82.2V37.2h77L517.6,156.1z"/>
</svg>
